# xmcd
#
# Track frame offsets:
#	183
#	3618
#	19370
#	31070
#	37070
#	41728
#	52970
#	63845
#	74795
#	104565
#	117538
#	131573
#	175593
#	195243
#	214598
#	228468
#	246023
#	257568
#	269875
#	310445
#
# Disc length: 4281 seconds
# Revision: 0
# Processed by: cddbd v1.5.2PL0 Copyright (c) Steve Scherf et al.
# Submitted via: dBpowerAMP V12.0
#
DISCID=2910b714
DTITLE=Royal Dragoon Guards - Fame and Renown
DYEAR=1994
DGENRE=British Guard
TTITLE0=Dettingen Fanfare
TTITLE1=Norma
TTITLE2=Soldiers Chorus - Sprig of Shillelagh
TTITLE3=St. Patrick's Day
TTITLE4=God Bless the Prince of Wales
TTITLE5=Regimental Slow March of the Royal Dragoon Guards
TTITLE6=Regimental Quick March of the Royal Dragoon Guards
TTITLE7=Killaloe
TTITLE8=Irish Rhapsody
TTITLE9=Yorkshire Relish
TTITLE10=Nessun Dorma
TTITLE11=Miserables
TTITLE12=One Moment in Time
TTITLE13=I Know Him So Well
TTITLE14=That's What Friends Are For
TTITLE15=Highland Cathedral
TTITLE16=Post Horn Galop
TTITLE17=Londonderry Air
TTITLE18=Echoes of an Era (Beatles Medley)
TTITLE19=Regimental Quick March of the Royal Dragoon Guards
EXTD=
EXTT0=
EXTT1=
EXTT2=
EXTT3=
EXTT4=
EXTT5=
EXTT6=
EXTT7=
EXTT8=
EXTT9=
EXTT10=
EXTT11=
EXTT12=
EXTT13=
EXTT14=
EXTT15=
EXTT16=
EXTT17=
EXTT18=
EXTT19=
PLAYORDER=
